HIERARCHY
ROOT Root
{
	OFFSET 0.00000 0.00000 0.00000
	CHANNELS 6 Xposition Yposition Zposition Zrotation Xrotation Yrotation
	JOINT Hips
	{
		OFFSET 0 0 0	
		CHANNELS 3 Zrotation Xrotation Yrotation
		JOINT Spine
		{
			OFFSET 0 4 0	
			CHANNELS 3 Zrotation Xrotation Yrotation
			JOINT Spine1
			{
				OFFSET 0 19.4 0	
				CHANNELS 3 Zrotation Xrotation Yrotation
				JOINT Spine2
				{
					OFFSET 0 16.6 0	
					CHANNELS 3 Zrotation Xrotation Yrotation
					JOINT LeftCollar
					{
						OFFSET 0 10 0	
						CHANNELS 3 Zrotation Xrotation Yrotation
						JOINT LeftArm
						{
							OFFSET 15.6 -2 3	
							CHANNELS 3 Zrotation Xrotation Yrotation
							JOINT LeftForeArm
							{
								OFFSET 3.5 -27 -1	
								CHANNELS 3 Zrotation Xrotation Yrotation
								JOINT LeftHand
								{
									OFFSET 1 -27 1	
									CHANNELS 3 Zrotation Xrotation Yrotation
									End Site
									{
										OFFSET 0 -15 0
									}
								}
							}
						}
					}
					JOINT RightCollar
					{
						OFFSET 0 10 0	
						CHANNELS 3 Zrotation Xrotation Yrotation
						JOINT RightArm
						{
							OFFSET -15.6 -2 3	
							CHANNELS 3 Zrotation Xrotation Yrotation
							JOINT RightForeArm
							{
								OFFSET -3.5 -27 -1	
								CHANNELS 3 Zrotation Xrotation Yrotation
								JOINT RightHand
								{
									OFFSET -1 -27 1	
									CHANNELS 3 Zrotation Xrotation Yrotation
									End Site
									{
										OFFSET 0 -15 0
									}
								}
							}
						}
					}
					JOINT Neck
					{
						OFFSET 0 10 0	
						CHANNELS 3 Zrotation Xrotation Yrotation
						JOINT Head
						{
							OFFSET 0 12.7 3	
							CHANNELS 3 Zrotation Xrotation Yrotation
							End Site
							{
								OFFSET 0 12.7 3
							}
						}
					}
				}
			}
		}
	}
	JOINT LeftHip
	{
		OFFSET 0 0 0	
		CHANNELS 3 Zrotation Xrotation Yrotation
		JOINT LeftUpLeg
		{
			OFFSET 8.8 -6 0	
			CHANNELS 3 Zrotation Xrotation Yrotation
			JOINT LeftLeg
			{
				OFFSET 0 -39 2	
				CHANNELS 3 Zrotation Xrotation Yrotation
				JOINT LeftFoot
				{
					OFFSET 0 -43 -2	
					CHANNELS 3 Zrotation Xrotation Yrotation
					JOINT LeftFootFront
					{
						OFFSET 0 -7 8.5	
						CHANNELS 3 Zrotation Xrotation Yrotation
						End Site
						{
							OFFSET 0 -0.5 9
						}
					}
				}
				JOINT LeftHeel
				{
					OFFSET 0 -43 -2	
					CHANNELS 3 Zrotation Xrotation Yrotation
					End Site
					{
						OFFSET 0 -7.5 -5
					}
				}
			}
		}
	}
	JOINT RightHip
	{
		OFFSET 0 0 0	
		CHANNELS 3 Zrotation Xrotation Yrotation
		JOINT RightUpLeg
		{
			OFFSET -8.8 -6 0	
			CHANNELS 3 Zrotation Xrotation Yrotation
			JOINT RightLeg
			{
				OFFSET 0 -39 2	
				CHANNELS 3 Zrotation Xrotation Yrotation
				JOINT RightFoot
				{
					OFFSET 0 -43 -2	
					CHANNELS 3 Zrotation Xrotation Yrotation
					JOINT RightFootFront
					{
						OFFSET 0 -7 8.5	
						CHANNELS 3 Zrotation Xrotation Yrotation
						End Site
						{
							OFFSET 0 -0.5 9
						}
					}
				}
				JOINT RightHeel
				{
					OFFSET 0 -43 -2	
					CHANNELS 3 Zrotation Xrotation Yrotation
					End Site
					{
						OFFSET 0 -7.5 -5
					}
				}
			}
		}
	}
}
MOTION
Frames: 17
Frame Time: 0.008
-5.3531 90.17 -5.8595 -0 0 -0 7.6719 7.816 32.195 -10.064 -3.5842 5.27 -10.064 -3.5842 5.27 -8.4749 -2.9496 4.4694 -0 0 -0 55.772 11.053 97.739 16.971 7.994 -34.118 20.614 -8.8173 -15.1 -0 0 -0 -64.896 -42.154 -55.666 -8.48 7.9608 3.9856 -8.1955 -8.0493 10.482 13.599 7.3883 -16.379 4.4389 5.5422 -11.321 7.6719 7.816 32.195 -5.6447 -20.888 -21.074 -5.6477 17.834 -2.9516 -19.252 -6.0139 -6.0167 -0.0048933 -0.0073225 -0.0044245 -0 0 -0 7.6719 7.816 32.195 -8.3077 -0.13028 17.591 17.839 20.722 -43.916 -0.35681 -27.719 -1.9644 0.0062916 -2.1058 -0.0046732 -0 0 -0 
-5.1456 90.089 -5.786 -0 0 -0 7.9895 7.7837 32.079 -10.043 -3.437 5.3798 -10.043 -3.437 5.3798 -8.457 -2.8248 4.5598 -0 0 -0 55.541 11.089 97.885 17.028 8.1196 -34.125 20.447 -8.7189 -15.164 -0 0 -0 -65.083 -42.419 -55.574 -8.4371 7.9599 3.8969 -8.1528 -8.1051 10.324 13.456 7.079 -16.746 4.3326 5.3634 -11.635 7.9895 7.7837 32.079 -5.9929 -21.071 -21.245 -6.2028 18.588 -2.6622 -18.712 -6.1589 -5.8663 -0.0061543 -0.008838 -0.0035032 -0 0 -0 7.9895 7.7837 32.079 -8.6326 -0.14955 17.838 18.299 21.295 -44.214 -0.33169 -28.378 -1.9913 0.0042429 -1.9353 -0.0046348 -0 0 -0 
-4.9393 90.006 -5.7171 -0 0 -0 8.3107 7.7236 31.958 -10.005 -3.2731 5.4846 -10.005 -3.2731 5.4846 -8.4241 -2.686 4.6459 -0 0 -0 55.277 11.127 98.056 17.088 8.2508 -34.125 20.268 -8.6249 -15.231 -0 0 -0 -65.32 -42.716 -55.525 -8.3741 7.9747 3.7933 -8.0813 -8.1204 10.156 13.286 6.7576 -17.109 4.2161 5.1824 -11.952 8.3107 7.7236 31.958 -6.3284 -21.289 -21.415 -6.8116 19.412 -2.3271 -18.14 -6.302 -5.7202 -0.0076569 -0.01068 -0.0024983 -0 0 -0 8.3107 7.7236 31.958 -8.959 -0.18361 18.038 18.788 21.92 -44.496 -0.31269 -29.077 -1.9933 0.0021831 -1.7415 -0.0038843 -0 0 -0 
-4.7345 89.923 -5.653 -0 0 -0 8.6308 7.6336 31.827 -9.9449 -3.0943 5.5866 -9.9449 -3.0943 5.5866 -8.3733 -2.535 4.7293 -0 0 -0 54.977 11.166 98.254 17.155 8.3879 -34.129 20.079 -8.5385 -15.289 -0 0 -0 -65.612 -43.043 -55.527 -8.2904 8.0074 3.6748 -7.9824 -8.1024 9.9782 13.084 6.4265 -17.467 4.0883 5.0002 -12.269 8.6308 7.6336 31.827 -6.6364 -21.528 -21.568 -7.4717 20.281 -1.9612 -17.537 -6.4357 -5.5741 -0.0093089 -0.012125 -0.0015627 -0 0 -0 8.6308 7.6336 31.827 -9.287 -0.22448 18.183 19.301 22.587 -44.749 -0.29628 -29.8 -1.9664 0.00033327 -1.5347 -0.0023524 -0 0 -0 
-4.5312 89.841 -5.5937 -0 0 -0 8.9466 7.5139 31.685 -9.862 -2.9025 5.6871 -9.862 -2.9025 5.6871 -8.3029 -2.3731 4.8114 -0 0 -0 54.64 11.206 98.481 17.233 8.5301 -34.151 19.885 -8.461 -15.33 -0 0 -0 -65.961 -43.398 -55.586 -8.1862 8.0594 3.5415 -7.8594 -8.0606 9.7934 12.849 6.0874 -17.818 3.9485 4.8167 -12.584 8.9466 7.5139 31.685 -6.9031 -21.772 -21.679 -8.1776 21.172 -1.5859 -16.899 -6.5533 -5.4229 -0.011023 -0.012794 -0.00085154 -0 0 -0 8.9466 7.5139 31.685 -9.6179 -0.2659 18.269 19.83 23.283 -44.962 -0.28144 -30.527 -1.9131 -0.001178 -1.3277 -0.0002314 -0 0 -0 
-4.3296 89.76 -5.5389 -0 0 -0 9.2554 7.3671 31.531 -9.7553 -2.6995 5.787 -9.7553 -2.6995 5.787 -8.2125 -2.2022 4.8926 -0 0 -0 54.263 11.247 98.737 17.323 8.6758 -34.2 19.69 -8.3924 -15.347 -0 0 -0 -66.368 -43.78 -55.71 -8.0634 8.1313 3.3938 -7.7175 -8.0051 9.6033 12.58 5.7409 -18.162 3.7967 4.6314 -12.892 9.2554 7.3671 31.531 -7.1176 -22.007 -21.729 -8.9198 22.061 -1.2259 -16.227 -6.6494 -5.2627 -0.012779 -0.012671 -0.00043131 -0 0 -0 9.2554 7.3671 31.531 -9.9521 -0.3045 18.292 20.365 23.995 -45.12 -0.26965 -31.238 -1.8425 -0.0023193 -1.1312 0.0020543 -0 0 -0 
-4.1296 89.682 -5.4887 -0 0 -0 9.5544 7.1987 31.369 -9.6257 -2.4876 5.8857 -9.6257 -2.4876 5.8857 -8.1027 -2.0238 4.9728 -0 0 -0 53.846 11.285 99.023 17.427 8.8222 -34.279 19.499 -8.3315 -15.336 -0 0 -0 -66.832 -44.185 -55.904 -7.9253 8.2227 3.2334 -7.5637 -7.9459 9.4079 12.28 5.3871 -18.498 3.6343 4.4426 -13.194 9.5544 7.1987 31.369 -7.2742 -22.222 -21.701 -9.6845 22.93 -0.90514 -15.521 -6.7202 -5.0905 -0.014542 -0.011998 -0.00032921 -0 0 -0 9.5544 7.1987 31.369 -10.288 -0.34011 18.251 20.893 24.714 -45.209 -0.2637 -31.915 -1.7685 -0.0031086 -0.95547 0.0040084 -0 0 -0 
-3.9314 89.606 -5.4428 -0 0 -0 9.8402 7.0162 31.203 -9.4752 -2.2694 5.982 -9.4752 -2.2694 5.982 -7.9751 -1.8405 5.0509 -0 0 -0 53.39 11.319 99.338 17.544 8.9661 -34.386 19.315 -8.2771 -15.299 -0 0 -0 -67.348 -44.612 -56.171 -7.7768 8.3321 3.0629 -7.4059 -7.892 9.2039 11.952 5.0261 -18.825 3.4636 4.2482 -13.489 9.8402 7.0162 31.203 -7.3732 -22.413 -21.586 -10.455 23.766 -0.64364 -14.783 -6.7626 -4.9041 -0.016184 -0.010998 -0.00052358 -0 0 -0 9.8402 7.0162 31.203 -10.621 -0.37557 18.146 21.396 25.433 -45.218 -0.26627 -32.544 -1.7058 -0.0036918 -0.014472 0.0052418 -0 0 -0 
-3.7349 89.534 -5.401 -0 0 -0 10.108 6.8284 31.038 -9.3065 -2.0487 6.0742 -9.3065 -2.0487 6.0742 -7.8323 -1.6552 5.1256 -0 0 -0 52.897 11.345 99.675 17.671 9.1038 -34.511 19.142 -8.2277 -15.241 -0 0 -0 -67.906 -45.055 -56.511 -7.6233 8.4571 2.8869 -7.2519 -7.85 8.9837 11.602 4.6586 -19.141 3.2878 4.0461 -13.775 10.108 6.8284 31.038 -7.421 -22.584 -21.386 -11.217 24.566 -0.45402 -14.015 -6.7744 -4.7012 -0.017344 -0.0096653 -0.00093545 -0 0 -0 10.108 6.8284 31.038 -10.943 -0.41528 17.975 21.856 26.147 -45.141 -0.27863 -33.115 -1.6677 -0.0039716 -0.013262 0.0056072 -0 0 -0 
-3.5401 89.466 -5.363 -0 0 -0 10.354 6.6439 30.882 -9.123 -1.8303 6.1605 -9.123 -1.8303 6.1605 -7.6769 -1.472 5.1953 -0 0 -0 52.372 11.364 100.03 17.803 9.2322 -34.641 18.981 -8.183 -15.169 -0 0 -0 -68.49 -45.508 -56.917 -7.4703 8.5943 2.7111 -7.1083 -7.8245 8.7358 11.237 4.2872 -19.446 3.1115 3.8353 -14.052 10.354 6.6439 30.882 -7.4288 -22.745 -21.111 -11.956 25.332 -0.33928 -13.217 -6.754 -4.4788 -0.017548 -0.0076898 -0.001463 -0 0 -0 10.354 6.6439 30.882 -11.244 -0.46353 17.743 22.257 26.852 -44.975 -0.29994 -33.626 -1.6627 -0.0040703 -0.010727 0.0051907 -0 0 -0 
-3.3469 89.403 -5.3284 -0 0 -0 10.572 6.4706 30.739 -8.9287 -1.6198 6.2396 -8.9287 -1.6198 6.2396 -7.5124 -1.2958 5.2591 -0 0 -0 51.826 11.377 100.39 17.936 9.3489 -34.764 18.832 -8.1435 -15.087 -0 0 -0 -69.078 -45.963 -57.374 -7.3229 8.7393 2.5426 -6.9793 -7.8174 8.4465 10.868 3.9163 -19.742 2.9395 3.6163 -14.322 10.572 6.4706 30.739 -7.4113 -22.911 -20.785 -12.664 26.069 -0.29127 -12.394 -6.7008 -4.2335 -0.016313 -0.0047144 -0.0019735 -0 0 -0 10.572 6.4706 30.739 -11.515 -0.52249 17.455 22.582 27.544 -44.725 -0.32701 -34.074 -1.694 -0.0040291 -0.0076265 0.0042357 -0 0 -0 
-3.1551 89.347 -5.297 -0 0 -0 10.759 6.3144 30.617 -8.7278 -1.4238 6.3107 -8.7277 -1.4238 6.3107 -7.3424 -1.1318 5.3165 -0 0 -0 51.274 11.386 100.73 18.067 9.4526 -34.869 18.693 -8.111 -15.002 -0 0 -0 -69.64 -46.407 -57.861 -7.1847 8.8867 2.3885 -6.8666 -7.8283 8.1025 10.502 3.5526 -20.028 2.7771 3.3914 -14.585 10.759 6.3144 30.617 -7.3839 -23.096 -20.438 -13.339 26.783 -0.29115 -11.549 -6.6159 -3.9637 -0.013388 -0.00057617 -0.0024321 -0 0 -0 10.759 6.3144 30.617 -11.749 -0.59079 17.117 22.822 28.212 -44.398 -0.35476 -34.463 -1.7587 -0.0038416 -0.0046407 0.0030304 -0 0 -0 
-2.9647 89.296 -5.2684 -0 0 -0 10.912 6.1793 30.519 -8.525 -1.2486 6.3738 -8.525 -1.2486 6.3738 -7.1709 -0.98544 5.3674 -0 0 -0 50.733 11.396 101.06 18.195 9.5436 -34.952 18.561 -8.0881 -14.912 -0 0 -0 -70.141 -46.827 -58.351 -7.0578 9.0301 2.255 -6.7686 -7.8548 7.6942 10.151 3.2041 -20.306 2.6298 3.164 -14.841 10.912 6.1793 30.519 -7.3612 -23.31 -20.102 -13.979 27.476 -0.31203 -10.693 -6.5026 -3.6709 -0.0089637 0.004481 -0.0028868 -0 0 -0 10.912 6.1793 30.519 -11.944 -0.66332 16.74 22.969 28.845 -44.007 -0.29816 -34.748 -1.7983 -0.066564 -0.050558 -0.0041896 -0 0 -0 
-2.7757 89.253 -5.2422 -0 0 -0 11.028 6.0683 30.447 -8.3252 -1.0999 6.4296 -8.3252 -1.0999 6.4296 -7.0021 -0.86137 5.4125 -0 0 -0 50.224 11.412 101.37 18.321 9.6232 -35.018 18.433 -8.0774 -14.813 -0 0 -0 -70.547 -47.213 -58.817 -6.9426 9.1631 2.1463 -6.6815 -7.8926 7.2184 9.8238 2.8784 -20.579 2.5024 2.9385 -15.092 11.028 6.0683 30.447 -7.3555 -23.557 -19.81 -14.585 28.144 -0.3234 -9.8372 -6.3661 -3.3617 -0.0037522 -0.46248 -0.0033405 -0 0 -0 11.028 6.0683 30.447 -12.1 -0.73256 16.331 23.021 29.427 -43.564 -0.3154 -35.027 -1.9051 -0.059547 -0.045726 -0.0078032 -0 0 -0 
-2.5879 89.217 -5.2179 -0 0 -0 11.107 5.9828 30.404 -8.133 -0.9817 6.4789 -8.133 -0.9817 6.4789 -6.8398 -0.76305 5.4525 -0 0 -0 49.766 11.437 101.64 18.447 9.6934 -35.072 18.305 -8.0808 -14.696 -0 0 -0 -70.826 -47.553 -59.235 -6.8375 9.2797 2.064 -6.5997 -7.9361 6.6799 9.5298 2.5818 -20.847 2.3987 2.7186 -15.338 11.107 5.9828 30.404 -7.3757 -23.834 -19.587 -15.153 28.778 -0.29653 -8.998 -6.213 -3.0469 0.0014153 -0.91828 -0.0036654 -0 0 -0 11.107 5.9828 30.404 -12.222 -0.7904 15.898 22.979 29.943 -43.078 -0.31284 -35.25 -2.0158 -0.053497 -0.043202 -0.0092562 -0 0 -0 
-2.4011 89.189 -5.1951 -0 0 -0 11.151 5.9239 30.389 -7.9523 -0.89649 6.523 -7.9523 -0.89649 6.523 -6.6875 -0.69241 5.4886 -0 0 -0 49.375 11.472 101.87 18.576 9.7569 -35.128 18.173 -8.0991 -14.544 -0 0 -0 -70.956 -47.84 -59.584 -6.7403 9.3756 2.0067 -6.5166 -7.9782 6.091 9.275 2.3183 -21.112 2.3212 2.5074 -15.579 11.151 5.9239 30.389 -7.427 -24.131 -19.451 -15.68 29.365 -0.20953 -8.1917 -6.0501 -2.74 0.0059003 -1.3457 -0.0035379 -0 0 -0 11.151 5.9239 30.389 -12.316 -0.83021 15.448 22.847 30.38 -42.561 -0.2862 -35.415 -2.119 -0.048653 -0.040805 -0.0089665 -0 0 -0 
-2.215 89.169 -5.1734 -0 0 -0 11.16 5.8916 30.398 -7.786 -0.84478 6.5637 -7.786 -0.84478 6.5637 -6.5474 -0.64986 5.5221 -0 0 -0 49.062 11.518 102.08 18.713 9.8156 -35.195 18.035 -8.1313 -14.34 -0 0 -0 -70.924 -48.069 -59.854 -6.6482 9.449 1.9711 -6.4264 -8.0113 5.4699 9.0626 2.0899 -21.376 2.2704 2.3067 -15.816 11.16 5.8916 30.398 -7.5105 -24.435 -19.405 -16.157 29.891 -0.051075 -7.4331 -5.8835 -2.4554 0.0094914 -1.7372 -0.0026095 -0 0 -0 11.16 5.8916 30.398 -12.387 -0.84792 14.992 22.632 30.725 -42.022 -0.23384 -35.523 -2.2059 -0.045123 -0.036792 -0.0073919 -0 0 -0 
